<?xml version="1.0" standalone="no"?>
<!DOCTYPE svg PUBLIC "-//W3C//DTD SVG 1.1//EN" "http://www.w3.org/Graphics/SVG/1.1/DTD/svg11.dtd" >
<svg xmlns="http://www.w3.org/2000/svg" xmlns:xlink="http://www.w3.org/1999/xlink" version="1.1">
<metadata>
Created by FontForge 20200427 at Mon Oct 13 21:56:32 2014
 By www
Copyright (c) 2006 by Daniel Hernandez. All rights reserved.
</metadata>
<defs>
<font id="StgoticW00-Regular" horiz-adv-x="1000" >
  <font-face 
    font-family="StgoticW00-Regular"
    font-weight="400"
    font-stretch="normal"
    units-per-em="1000"
    panose-1="2 0 0 0 0 0 0 0 0 0"
    ascent="800"
    descent="-200"
    x-height="1128"
    cap-height="1628"
    bbox="-253 -628 2753 2253"
    underline-thickness="50"
    underline-position="-175"
    unicode-range="U+0020-20AC"
  />
<missing-glyph 
 />
    <glyph glyph-name=".notdef" 
 />
    <glyph glyph-name=".null" horiz-adv-x="0" 
 />
    <glyph glyph-name="nonmarkingreturn" horiz-adv-x="333" 
 />
    <glyph glyph-name="space" unicode=" " horiz-adv-x="875" 
 />
    <glyph glyph-name="exclam" unicode="!" horiz-adv-x="500" 
d="M-3 1503h125v125h131v-125h125v-631h-125v-375h-131v875h-125v131zM-3 253h125v125h131v-125h125v-131h-125v-125h-131v125h-125v131z" />
    <glyph glyph-name="quotedbl" unicode="&#x22;" horiz-adv-x="1002" 
d="M-3 1503h125v125h131v-125h125v-131h-125v-250h-131v250h-125v131zM497 1503h125v125h131v-125h125v-131h-125v-250h-131v250h-125v131z" />
    <glyph glyph-name="numbersign" unicode="#" horiz-adv-x="2000" 
d="M247 247h-250v131h375v125h125v250h125v119h-375v131h500v250h256v-250h369v250h256v-250h250v-131h-375v-125h-125v-250h-125v-119h375v-131h-500v-250h-256v250h-369v-250h-256v250zM878 747h-125v-250h-125v-119h369v125h125v250h125v119h-369v-125z" />
    <glyph glyph-name="dollar" unicode="$" 
d="M128 -3h-131v131h125v125h375v244h-244v-125h-131v631h250v375h131v-375h244v125h131v-131h-125v-125h-375v-244h244v125h131v-506h-125v-125h-125v-375h-131v375h-244v-125z" />
    <glyph glyph-name="ampersand" unicode="&#x26;" horiz-adv-x="1500" 
d="M128 -3h-131v131h125v875h250v125h256v-125h125v-256h-125v-125h-125v-125h-125v-244h125v-125h119v125h125v125h125v1125h125v125h131v-625h119v125h131v-131h-125v-125h-125v-500h-125v-125h-125v-125h-250v-125h-256v125h-244v-125zM497 997h-119v-369h119v369z" />
    <glyph glyph-name="quotesingle" unicode="'" horiz-adv-x="500" 
d="M-3 1503h125v125h131v-125h125v-131h-125v-250h-131v250h-125v131z" />
    <glyph glyph-name="parenleft" unicode="(" horiz-adv-x="625" 
d="M-3 1128h125v250h125v125h125v125h131v-131h-125v-375h-125v-619h125v-375h125v-131h-131v125h-125v125h-125v250h-125v631z" />
    <glyph glyph-name="parenright" unicode=")" horiz-adv-x="625" 
d="M-3 1628h131v-125h125v-125h125v-250h125v-631h-125v-250h-125v-125h-125v-125h-131v131h125v375h125v619h-125v375h-125v131z" />
    <glyph glyph-name="asterisk" unicode="*" horiz-adv-x="750" 
d="M-3 1503h125v125h381v-125h125v-381h-125v-125h-381v125h-125v381zM128 1128h119v119h-119v-119zM378 1378h119v119h-119v-119zM128 1378h119v119h-119v-119zM378 1128h119v119h-119v-119z" />
    <glyph glyph-name="plus" unicode="+" horiz-adv-x="1125" 
d="M-3 628h375v375h131v-125h125v-250h250v-125h125v-131h-375v-375h-131v125h-125v250h-250v125h-125v131z" />
    <glyph glyph-name="comma" unicode="," horiz-adv-x="498" 
d="M-3 253h125v125h131v-125h125v-131h-125v-125h-125v-125h-131v131h125v119h-125v131z" />
    <glyph glyph-name="hyphen" unicode="-" 
d="M-3 628h125v125h756v-131h-125v-125h-756v131z" />
    <glyph glyph-name="period" unicode="." horiz-adv-x="500" 
d="M-3 253h125v125h131v-125h125v-131h-125v-125h-131v125h-125v131z" />
    <glyph glyph-name="slash" unicode="/" horiz-adv-x="1375" 
d="M-3 253h131v-125h119v250h125v250h125v250h125v250h125v250h125v125h256v-125h125v-131h-131v125h-119v-250h-125v-250h-125v-250h-125v-250h-125v-250h-125v-125h-256v125h-125v131z" />
    <glyph glyph-name="zero" unicode="0" 
d="M-3 1503h250v125h256v-125h244v125h131v-131h-125v-1375h-250v-125h-256v125h-250v1381zM372 1497h-119v-1244h125v-125h119v1244h-125v125z" />
    <glyph glyph-name="one" unicode="1" horiz-adv-x="875" 
d="M-3 1503h250v125h131v-125h125v-1375h119v125h131v-131h-125v-125h-256v125h-119v-125h-131v131h125v1244h-250v131z" />
    <glyph glyph-name="two" unicode="2" horiz-adv-x="1250" 
d="M-3 1628h131v-125h244v125h131v-125h125v-125h250v-506h-125v-125h-125v-125h-125v-125h-125v-125h-125v-244h119v125h125v125h506v-125h125v-131h-125v-125h-131v125h-494v-125h-256v506h125v125h125v125h125v125h125v494h-119v-125h-256v125h-125v125h-125v131z" />
    <glyph glyph-name="three" unicode="3" horiz-adv-x="1375" 
d="M128 -3h-131v131h125v125h125v125h506v-125h119v619h-119v-125h-131v125h-125v131h125v125h131v-125h119v369h-119v-125h-506v125h-125v125h-125v131h131v-125h494v125h131v-125h125v-125h250v-381h-250v-119h250v-631h-250v-125h-125v-125h-131v125h-494v-125z" />
    <glyph glyph-name="four" unicode="4" 
d="M-3 1128h125v125h125v125h125v125h125v125h131v-250h250v-131h-125v-994h125v-131h-125v-125h-131v125h-125v500h-244v-125h-131v125h-125v506zM497 1372h-119v-125h-125v-494h244v619z" />
    <glyph glyph-name="five" unicode="5" horiz-adv-x="1250" 
d="M-3 128h125v125h125v125h381v-125h119v494h-119v-125h-256v1006h381v-125h250v-131h-500v-619h119v125h125v125h131v-125h125v-631h-250v-125h-125v-125h-131v125h-369v-125h-131v131z" />
    <glyph glyph-name="six" unicode="6" horiz-adv-x="1125" 
d="M128 -3h-131v131h125v1250h250v125h125v125h131v-125h244v125h131v-131h-125v-125h-125v-125h-256v125h-119v-369h244v125h131v-125h119v125h131v-131h-125v-875h-250v-125h-256v125h-244v-125zM378 253h125v-125h119v744h-244v-619z" />
    <glyph glyph-name="seven" unicode="7" 
d="M247 1497h-119v-125h-131v131h125v125h381v-125h244v125h131v-131h-125v-119h125v-131h-125v-250h-125v-125h-125v-125h-125v-125h-125v-369h250v-131h-125v-125h-131v125h-125v125h-125v381h125v125h125v125h125v125h125v125h125v125h125v119h-500v125z" />
    <glyph glyph-name="eight" unicode="8" horiz-adv-x="1125" 
d="M128 -3h-131v131h125v625h250v119h-250v631h250v125h256v-125h244v125h131v-131h-125v-500h-250v-119h250v-756h-250v-125h-256v125h-244v-125zM622 872h-119v-125h-125v-494h125v-125h119v744zM497 1497h-119v-619h119v125h125v369h-125v125z" />
    <glyph glyph-name="nine" unicode="9" horiz-adv-x="1125" 
d="M-3 628h125v875h250v125h256v-125h244v125h131v-131h-125v-1375h-250v-125h-256v125h-119v-125h-131v131h125v125h375v369h-244v-125h-131v125h-119v-125h-131v131zM497 1497h-119v-744h244v619h-125v125z" />
    <glyph glyph-name="colon" unicode=":" horiz-adv-x="500" 
d="M-3 1003h125v125h131v-125h125v-131h-125v-125h-131v125h-125v131zM-3 253h125v125h131v-125h125v-131h-125v-125h-131v125h-125v131z" />
    <glyph glyph-name="semicolon" unicode=";" horiz-adv-x="500" 
d="M-3 253h125v125h131v-125h125v-131h-125v-125h-125v-125h-131v131h125v119h-125v131zM-3 1003h125v125h131v-125h125v-131h-125v-125h-131v125h-125v131z" />
    <glyph glyph-name="less" unicode="&#x3c;" horiz-adv-x="750" 
d="M-3 878h125v125h250v125h125v125h131v-131h-125v-125h-125v-125h-125v-119h125v-125h125v-125h125v-131h-131v125h-125v125h-250v125h-125v131z" />
    <glyph glyph-name="equal" unicode="=" horiz-adv-x="1250" 
d="M-3 378h1006v-125h125v-131h-1006v125h-125v131zM-3 878h1006v-125h125v-131h-1006v125h-125v131z" />
    <glyph glyph-name="greater" unicode="&#x3e;" horiz-adv-x="750" 
d="M-3 1253h131v-125h125v-125h250v-125h125v-131h-125v-125h-250v-125h-125v-125h-131v131h125v125h125v125h125v119h-125v125h-125v125h-125v131z" />
    <glyph glyph-name="question" unicode="?" horiz-adv-x="1125" 
d="M-3 1628h131v-125h244v125h131v-125h125v-125h250v-506h-125v-125h-125v-125h-125v-125h-125v-119h125v-125h125v-131h-125v-125h-131v125h-125v131h125v119h-125v256h125v125h125v125h125v494h-119v-125h-256v125h-125v125h-125v131z" />
    <glyph glyph-name="at" unicode="@" horiz-adv-x="1750" 
d="M1122 1372h-619v-125h-125v-250h-125v-369h125v-250h125v-125h875v-131h-250v-125h-631v125h-250v125h-125v250h-125v631h125v250h125v125h125v125h881v-125h125v-125h125v-250h125v-631h-125v-125h-506v125h-119v-125h-256v125h-125v631h250v125h256v-125h125v-625h119
v125h125v369h-125v250h-125v125zM872 1122h-119v-619h119v619z" />
    <glyph glyph-name="A" unicode="A" horiz-adv-x="1872" 
d="M-3 1128h125v250h125v125h250v125h381v-125h125v-125h125v-250h125v-375h125v-375h125v-250h119v125h131v-131h-125v-125h-256v125h-125v125h-119v-125h-125v-125h-131v125h-494v-125h-125v-119h125v-131h-131v125h-125v256h125v125h125v125h250v125h125v375h125v369
h-125v125h-244v-125h-250v-125h-125v-244h125v-125h244v125h131v-131h-125v-125h-256v125h-125v125h-125v256zM753 378h250v-125h119v125h125v119h-494v-119zM1122 997h-119v-125h-125v-119h244v244zM878 128h119v119h-119v-119z" />
    <glyph glyph-name="B" unicode="B" horiz-adv-x="1750" 
d="M-3 1378h125v125h125v125h256v-125h125v-125h119v125h375v125h256v-125h125v-381h-125v-244h125v-631h-250v-125h-125v-125h-131v125h-494v-125h-125v-119h125v-131h-131v125h-125v256h125v125h125v125h125v125h125v244h-244v-125h-131v131h125v125h125v125h125v119h-125
v125h-125v125h-369v-244h125v-131h-131v125h-125v256zM753 378h375v-125h119v619h-244v-375h-250v-119zM1247 1497h-119v-125h-125v-369h244v494z" />
    <glyph glyph-name="C" unicode="C" horiz-adv-x="1750" 
d="M1128 -3h-631v125h-250v125h-125v250h-125v631h125v250h125v125h125v125h131v-131h-125v-244h119v125h125v125h375v125h256v-125h125v-250h119v125h131v-131h-125v-125h-256v125h-125v250h-119v-125h-125v-875h-250v-125h-125v-119h619v125h125v250h125v125h256v-256
h-125v-250h-125v-125h-250v-125zM253 628h125v-250h119v125h125v744h-119v-125h-250v-494z" />
    <glyph glyph-name="D" unicode="D" horiz-adv-x="1500" 
d="M-3 128h125v125h125v125h125v125h125v244h-244v-125h-131v131h125v125h125v125h125v369h-250v125h-125v131h1006v-125h125v-1256h-250v-125h-125v-125h-131v125h-494v-125h-125v-119h125v-131h-131v125h-125v256zM503 378h375v-125h119v1119h-244v-875h-250v-119z" />
    <glyph glyph-name="E" unicode="E" horiz-adv-x="1875" 
d="M1128 -3h-631v125h-250v125h-125v250h-125v631h125v250h125v125h125v125h131v-131h-125v-244h119v125h125v125h375v125h256v-125h125v-250h119v125h131v-131h-125v-125h-250v-119h125v-131h-125v-125h-131v125h-244v-375h-250v-125h-125v-119h619v125h125v250h125v125
h256v-256h-125v-250h-125v-125h-250v-125zM253 628h125v-250h119v125h125v744h-119v-125h-250v-494zM1122 1497h-119v-125h-125v-369h119v125h250v119h-125v250z" />
    <glyph glyph-name="F" unicode="F" horiz-adv-x="1753" 
d="M-3 128h125v125h125v125h375v494h-250v131h125v125h125v375h375v125h256v-125h125v-250h119v125h131v-131h-125v-125h-250v-875h-125v-125h-125v-125h-381v125h-369v-125h-125v-119h125v-131h-131v125h-125v256zM628 253h125v-125h244v125h125v744h-119v-125h-125v-500
h-250v-119zM1122 1497h-119v-125h-125v-244h369v119h-125v250z" />
    <glyph glyph-name="G" unicode="G" horiz-adv-x="1875" 
d="M1128 -3h-631v125h-250v125h-125v250h-125v631h125v250h125v125h125v125h131v-131h-125v-244h119v125h125v125h375v125h256v-125h125v-250h119v125h131v-131h-125v-125h-256v125h-125v250h-119v-125h-125v-369h625v-125h125v-381h-125v-250h-125v-125h-250v-125zM878 497
h-250v-125h-125v-119h619v125h250v369h-494v-250zM253 628h125v-250h119v125h125v744h-119v-125h-250v-494z" />
    <glyph glyph-name="H" unicode="H" horiz-adv-x="1753" 
d="M-3 1378h125v125h125v125h256v-125h125v-125h119v125h256v-500h244v375h125v125h125v125h131v-131h-125v-1250h-250v-125h-125v-125h-131v125h-494v-125h-125v-119h125v-131h-131v125h-125v256h125v125h125v125h125v125h125v244h-244v-125h-131v131h125v125h125v125h125
v119h-125v125h-125v125h-369v-244h125v-131h-131v125h-125v256zM1247 872h-244v-375h-250v-119h375v-125h119v619z" />
    <glyph glyph-name="I" unicode="I" horiz-adv-x="1502" 
d="M-3 1378h125v125h125v125h256v-125h125v-125h125v-125h119v125h250v125h125v125h131v-131h-125v-1250h-125v-125h-125v-125h-381v125h-369v-125h-125v-119h125v-131h-131v125h-125v256h125v125h125v125h375v369h-244v-125h-131v131h125v125h125v125h125v244h-125v125
h-369v-244h125v-131h-131v125h-125v256zM628 253h125v-125h244v125h125v119h-125v750h-119v-750h-250v-119z" />
    <glyph glyph-name="J" unicode="J" horiz-adv-x="1502" 
d="M-3 1378h125v125h125v125h256v-125h125v-125h125v-125h119v125h250v125h125v125h131v-131h-125v-1500h-125v-125h-125v-125h-381v125h-369v-125h-125v-119h125v-131h-131v125h-125v256h125v125h125v125h375v619h-244v-125h-131v131h125v125h125v125h125v244h-125v125
h-369v-244h125v-131h-131v125h-125v256zM997 1122h-119v-1000h-250v-119h125v-125h244v125h125v119h-125v1000z" />
    <glyph glyph-name="K" unicode="K" horiz-adv-x="1750" 
d="M-3 1378h125v125h125v125h256v-125h125v-125h119v125h256v-625h119v125h125v375h125v125h125v125h131v-131h-125v-375h-125v-244h125v-625h125v-131h-125v-125h-131v125h-244v-125h-131v125h-494v-125h-125v-119h125v-131h-131v125h-125v256h125v125h125v125h125v125h125
v244h-244v-125h-131v131h125v125h125v125h125v119h-125v125h-125v125h-369v-244h125v-131h-131v125h-125v256zM1247 747h-244v-250h-250v-119h375v-125h119v494z" />
    <glyph glyph-name="L" unicode="L" horiz-adv-x="1626" 
d="M-3 1378h125v125h125v125h256v-125h125v-125h125v-125h119v125h131v-131h-125v-875h-250v-119h619v125h125v125h131v-131h-125v-250h-125v-125h-1000v-125h-125v-119h125v-131h-131v125h-125v256h125v125h125v125h250v125h125v369h-119v-125h-131v131h125v125h125v369
h-125v125h-369v-244h125v-131h-131v125h-125v256z" />
    <glyph glyph-name="M" unicode="M" horiz-adv-x="2251" 
d="M-3 1378h125v125h125v125h256v-125h125v-125h125v-125h119v125h125v125h256v-125h244v125h256v-125h119v125h131v-131h-125v-1244h119v125h131v-131h-125v-125h-256v125h-125v1250h-119v-125h-125v-244h125v-256h-125v-619h125v-131h-256v125h-244v-125h-381v125h-369
v-125h-125v-119h125v-131h-131v125h-125v256h125v125h125v125h375v369h-119v-125h-131v131h125v125h125v369h-125v125h-369v-244h125v-131h-131v125h-125v256zM997 1003h125v369h-119v-125h-125v-875h-250v-119h125v-125h244v125h125v494h-125v256z" />
    <glyph glyph-name="N" unicode="N" horiz-adv-x="1750" 
d="M-3 1378h125v125h125v125h256v-125h125v-125h125v-125h119v125h125v125h256v-125h119v125h131v-131h-125v-1244h119v125h131v-131h-125v-125h-256v125h-244v-125h-381v125h-369v-125h-125v-119h125v-131h-131v125h-125v256h125v125h125v125h375v369h-119v-125h-131v131
h125v125h125v369h-125v125h-369v-244h125v-131h-131v125h-125v256zM628 253h125v-125h244v125h125v1119h-119v-125h-125v-875h-250v-119z" />
    <glyph glyph-name="O" unicode="O" horiz-adv-x="1875" 
d="M-3 1128h125v250h125v125h125v125h131v-131h-125v-244h119v125h125v125h756v-125h125v-250h125v-631h-125v-250h-125v-125h-250v-125h-631v125h-250v125h-125v250h-125v631zM878 497h-250v-125h-125v-119h619v125h125v250h125v494h-125v250h-369v-875zM253 628h125v-250
h119v125h125v744h-119v-125h-250v-494z" />
    <glyph glyph-name="P" unicode="P" horiz-adv-x="1750" 
d="M-3 1378h125v125h125v125h256v-125h125v-125h119v125h375v125h256v-125h125v-506h-125v-125h-125v-125h-250v-250h-250v-119h375v-125h125v-131h-125v-125h-131v125h-494v-125h-125v-119h125v-131h-131v125h-125v256h125v125h125v125h125v125h125v244h-244v-125h-131v131
h125v125h125v125h125v119h-125v125h-125v125h-369v-250h-131v256zM1247 1497h-119v-125h-125v-494h244v619z" />
    <glyph glyph-name="Q" unicode="Q" horiz-adv-x="1874" 
d="M497 122h-250v125h-125v250h-125v631h125v250h125v125h125v125h131v-131h-125v-244h119v125h125v125h756v-125h125v-250h125v-631h-125v-125h-125v-119h125v-125h125v-125h125v-125h119v125h131v-131h-125v-125h-381v125h-125v125h-125v125h-119v-125h-631v125z
M1247 1372h-369v-869h125v-125h244v250h125v494h-125v250zM253 628h125v-250h119v125h125v744h-119v-125h-250v-494zM628 372h-125v-119h494v119h-125v125h-244v-125z" />
    <glyph glyph-name="R" unicode="R" horiz-adv-x="1750" 
d="M-3 1378h125v125h125v125h256v-125h125v-125h119v125h375v125h256v-125h125v-381h-125v-244h125v-625h125v-131h-125v-125h-131v125h-125v625h-244v-250h-250v-119h250v-125h125v-131h-125v-125h-131v125h-369v-125h-125v-119h125v-131h-131v125h-125v256h125v125h125
v125h125v125h125v244h-244v-125h-131v131h125v125h125v125h125v119h-125v125h-125v125h-369v-244h125v-131h-131v125h-125v256zM1247 1497h-119v-125h-125v-494h119v125h125v494z" />
    <glyph glyph-name="S" unicode="S" horiz-adv-x="1500" 
d="M-3 128h125v125h125v125h631v-125h119v125h125v119h-250v125h-250v125h-250v125h-250v381h125v250h250v125h381v-125h125v-125h119v125h131v-131h-125v-125h-256v125h-125v125h-119v-125h-125v-119h250v-125h250v-125h125v-125h250v-256h-125v-250h-125v-125h-125v-125
h-125v-125h-131v125h-494v-125h-125v-119h125v-131h-131v125h-125v256zM628 878h244v119h-244v-119zM378 1122v-119h244v119h-244zM878 872v-119h244v119h-244zM253 1128h119v119h-119v-119zM1128 628h119v119h-119v-119z" />
    <glyph glyph-name="T" unicode="T" horiz-adv-x="1750" 
d="M1128 -3h-631v125h-250v125h-125v250h-125v506h125v125h125v125h375v119h-494v-125h-131v131h125v125h125v125h631v-125h500v-125h119v125h131v-131h-125v-125h-625v-750h-250v-125h-125v-119h619v125h125v250h125v125h131v-381h-125v-250h-250v-125zM378 997h-125v-494
h125v-125h119v125h125v619h-244v-125z" />
    <glyph glyph-name="U" unicode="U" horiz-adv-x="1750" 
d="M-3 1378h125v125h125v125h256v-125h125v-125h125v-125h119v125h125v125h256v-125h119v125h131v-131h-125v-1244h119v125h131v-131h-125v-125h-256v125h-244v-125h-256v125h-119v-125h-131v131h125v619h-244v-125h-131v131h125v125h125v125h125v244h-125v125h-369v-244
h125v-131h-131v125h-125v256zM1122 1372h-119v-125h-125v-1119h119v125h125v1119z" />
    <glyph glyph-name="V" unicode="V" horiz-adv-x="1502" 
d="M-3 1378h125v125h125v125h256v-125h125v-125h125v-125h125v-1125h119v125h125v869h-125v256h125v125h131v-125h125v-256h-125v-1000h-250v-125h-256v125h-119v-125h-131v131h125v619h-244v-125h-131v131h125v125h125v125h125v244h-125v125h-369v-244h125v-131h-131v125
h-125v256z" />
    <glyph glyph-name="W" unicode="W" horiz-adv-x="2127" 
d="M-3 1378h125v125h125v125h256v-125h125v-125h125v-125h119v125h125v125h256v-125h119v125h131v-131h-125v-369h125v-256h-125v-619h119v125h250v994h-125v256h125v125h131v-125h125v-256h-125v-1125h-375v-125h-256v125h-244v-125h-256v125h-119v-125h-131v131h125v619
h-244v-125h-131v131h125v125h125v125h125v244h-125v125h-369v-244h125v-131h-131v125h-125v256zM997 1003h125v369h-119v-125h-125v-1119h119v125h125v494h-125v256z" />
    <glyph glyph-name="X" unicode="X" horiz-adv-x="1998" 
d="M-3 128h125v125h125v125h500v125h125v244h-375v256h250v244h-125v250h-119v-125h-131v131h125v125h256v-125h125v-250h119v125h125v125h125v125h256v-125h125v-250h119v125h131v-131h-125v-125h-256v125h-125v250h-119v-125h-125v-125h-125v-244h250v-256h-125v-244h125
v-375h119v125h131v-131h-125v-125h-256v125h-125v375h-119v-125h-125v-119h125v-131h-125v-125h-131v125h-369v-125h-125v-119h125v-131h-131v125h-125v256z" />
    <glyph glyph-name="Y" unicode="Y" horiz-adv-x="1626" 
d="M-3 1378h125v125h125v125h256v-125h125v-125h125v-125h119v125h125v125h256v-125h119v125h131v-131h-125v-1500h-125v-125h-381v125h-369v-125h-125v-119h125v-131h-131v125h-125v256h125v125h125v125h381v-125h125v-125h119v494h-119v-125h-256v125h-119v-125h-131v131
h125v369h-244v-125h-131v131h125v125h125v125h125v244h-125v125h-369v-250h-131v256zM1122 1372h-119v-125h-125v-869h119v125h125v869z" />
    <glyph glyph-name="Z" unicode="Z" horiz-adv-x="1502" 
d="M1122 628h131v-125h125v-256h-125v-125h-125v-125h-381v125h-125v125h-244v-250h-256v256h125v250h125v125h125v119h-250v256h500v125h125v119h-250v125h-369v-125h-125v-125h-131v256h125v125h125v125h381v-125h125v-125h244v250h256v-256h-125v-125h-125v-125h-125
v-119h250v-256h-500v-125h-125v-125h-125v-119h375v-125h369v125h125v119h-125v131z" />
    <glyph glyph-name="bracketleft" unicode="[" 
d="M-3 1628h631v-125h125v-131h-125v-125h-131v125h-244v-1494h119v125h131v-125h125v-131h-125v-125h-506v2006z" />
    <glyph glyph-name="backslash" unicode="\" horiz-adv-x="1375" 
d="M247 1372h-119v-125h-131v131h125v125h256v-125h125v-250h125v-250h125v-250h125v-250h125v-250h119v125h131v-131h-125v-125h-256v125h-125v250h-125v250h-125v250h-125v250h-125v250z" />
    <glyph glyph-name="bracketright" unicode="]" horiz-adv-x="958" 
d="M-3 1503h125v125h506v-2006h-506v125h-125v131h125v125h131v-125h119v1494h-119v-125h-131v125h-125v131z" />
    <glyph glyph-name="asciicircum" unicode="^" horiz-adv-x="500" 
d="M247 1372h-119v-125h-131v256h125v125h131v-125h125v-256h-131v125z" />
    <glyph glyph-name="underscore" unicode="_" 
d="M-3 253h756v-125h125v-131h-756v125h-125v131z" />
    <glyph glyph-name="grave" unicode="`" horiz-adv-x="375" 
d="M-3 1628h131v-125h125v-256h-131v125h-125v256z" />
    <glyph glyph-name="a" unicode="a" horiz-adv-x="1125" 
d="M247 122h-119v-125h-131v131h125v500h125v119h-125v381h131v-125h369v125h131v-125h125v-131h-125v-744h119v125h131v-131h-125v-125h-256v125h-119v-125h-256v125zM378 628h119v244h-244v-119h125v-125zM497 497h-119v-244h119v244z" />
    <glyph glyph-name="b" unicode="b" horiz-adv-x="1003" 
d="M247 122h-119v-125h-131v131h125v1244h-125v131h125v125h131v-125h119v125h131v-131h-125v-494h119v125h131v-125h119v125h131v-131h-125v-875h-250v-125h-256v125zM497 872h-119v-619h119v619z" />
    <glyph glyph-name="c" unicode="c" horiz-adv-x="1003" 
d="M128 -3h-131v131h125v875h250v125h256v-125h119v125h131v-131h-125v-125h-256v125h-119v-744h125v-125h119v125h131v-131h-125v-125h-256v125h-244v-125z" />
    <glyph glyph-name="d" unicode="d" horiz-adv-x="1121" 
d="M372 1503h125v125h131v-125h119v125h131v-131h-125v-1369h119v125h131v-131h-125v-125h-256v125h-119v-125h-256v125h-119v-125h-131v131h125v875h125v125h131v-125h119v369h-125v131zM497 872h-119v-619h119v619z" />
    <glyph glyph-name="e" unicode="e" horiz-adv-x="875" 
d="M372 122h-244v-125h-131v131h125v875h250v125h256v-125h125v-256h-250v-125h-125v-369h125v-125h119v125h131v-131h-125v-125h-256v125zM497 997h-119v-244h119v244z" />
    <glyph glyph-name="f" unicode="f" horiz-adv-x="876" 
d="M-3 128h125v744h-125v131h125v500h250v125h256v-125h125v-256h-256v250h-119v-494h250v-131h-250v-619h125v-125h119v125h131v-131h-125v-125h-256v125h-244v-125h-131v131z" />
    <glyph glyph-name="g" unicode="g" horiz-adv-x="1003" 
d="M122 -247h125v125h131v-250h119v125h125v119h-125v125h-250v125h-119v-125h-131v131h125v750h125v125h250v125h131v-125h119v125h131v-131h-125v-1250h-125v-125h-125v-125h-256v125h-125v131zM497 872h-119v-619h119v619zM503 3h119v119h-119v-119z" />
    <glyph glyph-name="h" unicode="h" horiz-adv-x="1003" 
d="M-3 253h125v1119h-125v131h125v125h131v-125h119v125h131v-131h-125v-494h119v125h131v-125h125v-750h125v-131h-125v-125h-131v125h-125v750h-119v-750h-125v-125h-131v125h-125v131z" />
    <glyph glyph-name="i" unicode="i" horiz-adv-x="625" 
d="M247 122h-119v-125h-131v131h125v744h-125v131h125v125h131v-125h250v-131h-125v-619h125v-131h-125v-125h-131v125zM122 1503h125v125h131v-125h125v-131h-125v-125h-131v125h-125v131z" />
    <glyph glyph-name="j" unicode="j" horiz-adv-x="751" 
d="M-128 -247h125v125h131v-250h119v125h125v244h-125v875h-125v131h125v125h131v-125h250v-131h-125v-1125h-125v-125h-125v-125h-256v125h-125v131zM247 1503h125v125h131v-125h125v-131h-125v-125h-131v125h-125v131z" />
    <glyph glyph-name="k" unicode="k" 
d="M-3 253h125v1119h-125v131h125v125h131v-125h119v125h131v-131h-125v-494h119v125h131v-125h125v-256h-250v-119h125v-125h125v-250h125v-131h-125v-125h-131v125h-125v500h-119v-500h-125v-125h-131v125h-125v131zM378 753h119v119h-119v-119z" />
    <glyph glyph-name="l" unicode="l" horiz-adv-x="624" 
d="M247 122h-119v-125h-131v131h125v1244h-125v131h125v125h131v-125h119v125h131v-131h-125v-1244h125v-131h-125v-125h-131v125z" />
    <glyph glyph-name="m" unicode="m" horiz-adv-x="1375" 
d="M-3 253h125v619h-125v131h125v125h131v-125h244v125h131v-125h244v125h131v-125h125v-750h125v-131h-125v-125h-131v125h-125v750h-119v-875h-131v125h-125v750h-119v-750h-125v-125h-131v125h-125v131z" />
    <glyph glyph-name="n" unicode="n" horiz-adv-x="1003" 
d="M-3 253h125v619h-125v131h125v125h131v-125h244v125h131v-125h125v-750h125v-131h-125v-125h-131v125h-125v750h-119v-750h-125v-125h-131v125h-125v131z" />
    <glyph glyph-name="o" unicode="o" horiz-adv-x="875" 
d="M-3 1003h250v125h256v-125h125v-881h-250v-125h-256v125h-125v881zM372 997h-119v-869h119v869z" />
    <glyph glyph-name="p" unicode="p" horiz-adv-x="1003" 
d="M497 122h-119v-369h125v-131h-125v-125h-131v125h-125v1250h-125v131h250v125h381v-125h119v125h131v-131h-125v-875h-125v-125h-131v125zM497 872h-119v-619h119v619z" />
    <glyph glyph-name="q" unicode="q" horiz-adv-x="1003" 
d="M247 122h-119v-125h-131v131h125v750h125v125h250v125h131v-125h119v125h131v-131h-125v-1375h-125v-125h-131v125h-125v131h125v369h-119v-125h-131v125zM497 872h-119v-619h119v619z" />
    <glyph glyph-name="r" unicode="r" horiz-adv-x="875" 
d="M247 122h-119v-125h-131v131h125v744h-125v131h125v125h131v-125h244v125h131v-125h125v-256h-256v125h-119v-619h125v-131h-125v-125h-131v125z" />
    <glyph glyph-name="s" unicode="s" 
d="M247 122h-119v-125h-131v131h125v125h125v119h-125v631h250v125h256v-125h119v125h131v-131h-125v-125h-125v-119h125v-506h-125v-125h-250v-125h-131v125zM253 378h125v-125h119v244h-244v-119zM497 872h-119v-244h244v119h-125v125z" />
    <glyph glyph-name="t" unicode="t" horiz-adv-x="876" 
d="M122 128h125v869h-119v-125h-131v131h125v125h125v375h125v125h131v-625h119v125h131v-131h-125v-125h-125v-619h125v-131h-125v-125h-131v125h-119v-125h-131v131z" />
    <glyph glyph-name="u" unicode="u" horiz-adv-x="1003" 
d="M378 -3h-131v125h-125v750h-125v131h125v125h131v-125h125v-750h119v750h125v125h131v-125h125v-131h-125v-619h125v-131h-125v-125h-131v125h-244v-125z" />
    <glyph glyph-name="v" unicode="v" horiz-adv-x="1003" 
d="M247 122h-119v-125h-131v131h125v869h-125v131h256v-125h125v-750h119v750h125v125h131v-125h125v-131h-250v-750h-125v-125h-256v125z" />
    <glyph glyph-name="w" unicode="w" horiz-adv-x="1374" 
d="M247 122h-119v-125h-131v131h125v744h-125v131h125v125h131v-125h125v-750h119v875h131v-125h125v-750h119v750h125v125h131v-125h125v-131h-250v-750h-125v-125h-256v125h-119v-125h-256v125z" />
    <glyph glyph-name="x" unicode="x" horiz-adv-x="1003" 
d="M-3 253h125v125h131v-125h119v369h-125v125h-125v125h-125v131h125v125h131v-125h125v-125h119v125h125v125h131v-125h125v-131h-125v-125h-131v125h-119v-369h125v-125h125v-125h125v-131h-125v-125h-131v125h-125v125h-119v-125h-125v-125h-131v125h-125v131z" />
    <glyph glyph-name="y" unicode="y" horiz-adv-x="1003" 
d="M128 -122h625v-256h-125v-125h-381v125h-125v250h-125v256h125v744h-125v131h125v125h131v-125h125v-750h119v750h125v125h131v-125h125v-131h-125v-625h-125v-125h-125v-125h-375v-119zM253 -372h369v119h-369v-119z" />
    <glyph glyph-name="z" unicode="z" horiz-adv-x="876" 
d="M-3 253h125v125h125v119h-125v131h250v119h-125v125h-119v-125h-131v256h125v125h131v-125h125v-125h119v125h125v125h131v-256h-125v-125h-125v-119h250v-131h-250v-125h-125v-119h244v125h131v-381h-256v125h-244v-125h-256v256zM128 128h119v119h-119v-119z" />
    <glyph glyph-name="braceleft" unicode="{" horiz-adv-x="1125" 
d="M-3 753h125v125h125v625h125v125h256v-125h119v125h131v-125h125v-131h-125v-125h-131v125h-244v-500h-125v-369h125v-625h244v125h131v-125h125v-131h-125v-125h-131v125h-119v-125h-256v125h-125v750h-125v125h-125v131z" />
    <glyph glyph-name="bar" unicode="|" horiz-adv-x="833" 
d="M-3 1497h-125v131h125v125h131v-125h125v-1875h125v-131h-125v-125h-131v125h-125v1875z" />
    <glyph glyph-name="braceright" unicode="}" horiz-adv-x="500" 
d="M-3 1503h125v125h131v-125h119v125h131v-125h125v-625h125v-125h125v-131h-125v-125h-125v-750h-125v-125h-131v125h-119v-125h-131v125h-125v131h125v125h131v-125h119v625h125v369h-125v500h-119v-125h-131v125h-125v131z" />
    <glyph glyph-name="asciitilde" unicode="~" horiz-adv-x="750" 
d="M-3 1503h131v-125h119v125h125v125h256v-256h-131v125h-119v-125h-125v-125h-256v256z" />
    <glyph glyph-name="exclamdown" unicode="&#xa1;" horiz-adv-x="500" 
d="M-3 753h125v375h131v-875h125v-131h-125v-125h-131v125h-125v631zM-3 1503h125v125h131v-125h125v-131h-125v-125h-131v125h-125v131z" />
    <glyph glyph-name="cent" unicode="&#xa2;" horiz-adv-x="1003" 
d="M128 -3h-131v131h125v875h250v625h131v-125h125v-500h119v125h131v-131h-125v-125h-256v125h-119v-744h125v-125h119v125h131v-131h-125v-500h-131v125h-125v375h-244v-125z" />
    <glyph glyph-name="sterling" unicode="&#xa3;" horiz-adv-x="1626" 
d="M-3 128h125v125h125v125h1000v125h125v125h131v-131h-125v-250h-125v-125h-1000v-125h-125v-119h125v-131h-131v125h-125v256z" />
    <glyph glyph-name="yen" unicode="&#xa5;" horiz-adv-x="1626" 
 />
    <glyph glyph-name="brokenbar" unicode="&#xa6;" horiz-adv-x="833" 
d="M372 1628h125v125h131v-125h125v-1006h-131v125h-125v750h-125v131zM497 503h131v-125h125v-750h125v-131h-125v-125h-131v125h-125v1006z" />
    <glyph glyph-name="dieresis" unicode="&#xa8;" 
d="M-3 1503h125v125h131v-125h125v-131h-125v-250h-131v250h-125v131zM497 1503h125v125h131v-125h125v-131h-125v-250h-131v250h-125v131z" />
    <glyph glyph-name="copyright" unicode="&#xa9;" horiz-adv-x="1875" 
d="M-3 1128h125v250h125v125h125v125h881v-125h125v-125h125v-250h125v-631h-125v-250h-125v-125h-125v-125h-756v125h-250v125h-125v250h-125v631zM503 1247h-125v-250h-125v-369h125v-250h125v-125h619v125h125v250h125v369h-125v250h-125v125h-619v-125zM497 1128h250
v125h256v-125h125v-131h-256v125h-119v-619h244v125h131v-131h-125v-125h-256v125h-250v631z" />
    <glyph glyph-name="ordfeminine" unicode="&#xaa;" horiz-adv-x="875" 
d="M-3 1503h250v125h256v-125h125v-500h125v-131h-256v125h-119v-125h-256v125h-125v506zM372 1497h-119v-494h119v494z" />
    <glyph glyph-name="guillemotleft" unicode="&#xab;" horiz-adv-x="1125" 
d="M-3 878h125v125h250v125h131v-131h-125v-125h-125v-119h125v-125h125v-131h-131v125h-250v125h-125v131zM497 878h125v125h250v125h131v-131h-125v-125h-125v-119h125v-125h125v-131h-131v125h-250v125h-125v131z" />
    <glyph glyph-name="registered" unicode="&#xae;" horiz-adv-x="1875" 
d="M-3 1128h125v250h125v125h125v125h881v-125h125v-125h125v-250h125v-631h-125v-250h-125v-125h-125v-125h-756v125h-250v125h-125v250h-125v631zM503 1247h-125v-250h-125v-369h125v-250h119v750h250v125h256v-125h125v-256h-250v-119h250v-375h119v250h125v369h-125v250
h-125v125h-619v-125zM503 253h619v119h-250v375h-119v-375h-250v-119zM872 1122h-119v-244h119v244z" />
    <glyph glyph-name="degree" unicode="&#xb0;" horiz-adv-x="833" 
d="M-3 1503h250v125h256v-125h125v-506h-250v-125h-256v125h-125v506zM372 1497h-119v-494h119v494z" />
    <glyph glyph-name="uni00B2" unicode="&#xb2;" horiz-adv-x="875" 
d="M-3 1503h250v125h256v-125h125v-256h-250v-125h-125v-119h244v125h131v-125h125v-131h-131v125h-119v-125h-506v256h250v125h125v244h-119v-125h-256v131z" />
    <glyph glyph-name="uni00B3" unicode="&#xb3;" horiz-adv-x="750" 
d="M-3 1503h125v125h381v-125h125v-131h-250v-119h250v-256h-250v-125h-256v125h-125v131h256v-125h119v244h-125v131h125v119h-244v-125h-131v131z" />
    <glyph glyph-name="acute" unicode="&#xb4;" horiz-adv-x="375" 
d="M-3 1503h125v125h131v-256h-125v-125h-131v256z" />
    <glyph glyph-name="mu" unicode="&#xb5;" 
d="M-3 1003h125v125h131v-125h125v-750h119v750h125v125h131v-125h125v-131h-125v-619h125v-131h-125v-125h-131v125h-244v-369h125v-131h-125v-125h-131v125h-125v1250h-125v131z" />
    <glyph glyph-name="paragraph" unicode="&#xb6;" horiz-adv-x="2000" 
d="M622 1378h125v125h250v125h631v-125h125v-1756h-381v125h-250v625h-119v-125h-256v125h-125v881zM878 503h119v125h125v869h-119v-125h-125v-869zM1497 1497h-119v-1619h119v1619z" />
    <glyph glyph-name="cedilla" unicode="&#xb8;" horiz-adv-x="500" 
d="M122 3h256v-256h-125v-125h-256v131h250v119h-125v131z" />
    <glyph glyph-name="uni00B9" unicode="&#xb9;" horiz-adv-x="625" 
d="M-3 1503h125v125h131v-125h125v-500h125v-131h-506v131h125v369h-125v131z" />
    <glyph glyph-name="ordmasculine" unicode="&#xba;" horiz-adv-x="875" 
d="M-3 1503h125v125h381v-125h125v-506h-125v-125h-381v125h-125v506zM372 1497h-119v-494h119v494z" />
    <glyph glyph-name="guillemotright" unicode="&#xbb;" horiz-adv-x="1125" 
d="M-3 1128h131v-125h250v-125h125v-131h-125v-125h-250v-125h-131v131h125v125h125v119h-125v125h-125v131zM497 1128h131v-125h250v-125h125v-131h-125v-125h-250v-125h-131v131h125v125h125v119h-125v125h-125v131z" />
    <glyph glyph-name="onequarter" unicode="&#xbc;" horiz-adv-x="1625" 
d="M-3 253h131v-125h119v250h125v250h125v244h-500v131h125v369h-125v131h125v125h131v-125h125v-500h125v-125h119v250h125v250h125v125h256v-125h125v-131h-131v125h-119v-250h-125v-250h-125v-250h-125v-250h-125v-250h-125v-125h-256v125h-125v131zM747 503h125v125h125
v125h256v-125h125v-631h-256v250h-375v256zM1122 622h-119v-244h119v244z" />
    <glyph glyph-name="onehalf" unicode="&#xbd;" horiz-adv-x="1625" 
d="M-3 253h131v-125h119v250h125v250h125v244h-500v131h125v369h-125v131h125v125h131v-125h125v-500h125v-125h119v250h125v250h125v125h256v-125h125v-131h-131v125h-119v-250h-125v-250h-125v-244h244v125h256v-125h125v-256h-250v-125h-125v-119h244v125h131v-125h125
v-131h-131v125h-119v-125h-506v256h125v125h250v244h-119v-125h-256v125h-119v-250h-125v-250h-125v-125h-256v125h-125v131z" />
    <glyph glyph-name="threequarters" unicode="&#xbe;" horiz-adv-x="1625" 
d="M-3 253h131v-125h119v250h125v250h125v244h-500v131h125v369h-125v131h125v125h131v-125h125v-500h125v-125h119v250h125v250h125v125h256v-125h125v-131h-131v125h-119v-250h-125v-250h-125v-244h119v125h381v-125h125v-131h-250v-119h250v-256h-250v-125h-256v125h-125
v131h256v-125h119v244h-125v131h125v119h-244v-125h-131v125h-119v-250h-125v-250h-125v-125h-256v125h-125v131z" />
    <glyph glyph-name="questiondown" unicode="&#xbf;" 
d="M247 1503h125v125h131v-125h125v-131h-125v-119h125v-256h-125v-125h-125v-125h-125v-494h119v125h256v-125h125v-125h125v-131h-131v125h-244v-125h-131v125h-125v125h-250v506h125v125h125v125h125v125h125v119h-125v125h-125v131z" />
    <glyph glyph-name="Agrave" unicode="&#xc0;" horiz-adv-x="1875" 
d="M-3 1128h125v250h125v125h250v125h381v-125h125v-125h125v-250h125v-375h125v-375h125v-250h119v125h131v-131h-125v-125h-256v125h-125v125h-119v-125h-125v-125h-131v125h-494v-125h-125v-119h125v-131h-131v125h-125v256h125v125h125v125h250v125h125v375h125v369
h-125v125h-244v-125h-250v-125h-125v-244h125v-125h244v125h131v-131h-125v-125h-256v125h-125v125h-125v256zM753 378h250v-125h119v125h125v119h-494v-119zM872 2128h131v-125h125v-256h-131v125h-125v256zM1122 997h-119v-125h-125v-119h244v244zM878 128h119v119h-119
v-119z" />
    <glyph glyph-name="Aacute" unicode="&#xc1;" horiz-adv-x="1875" 
d="M-3 1128h125v250h125v125h250v125h381v-125h125v-125h125v-250h125v-375h125v-375h125v-250h119v125h131v-131h-125v-125h-256v125h-125v125h-119v-125h-125v-125h-131v125h-494v-125h-125v-119h125v-131h-131v125h-125v256h125v125h125v125h250v125h125v375h125v369
h-125v125h-244v-125h-250v-125h-125v-244h125v-125h244v125h131v-131h-125v-125h-256v125h-125v125h-125v256zM753 378h250v-125h119v125h125v119h-494v-119zM997 2003h125v125h131v-256h-125v-125h-131v256zM1122 997h-119v-125h-125v-119h244v244zM878 128h119v119h-119
v-119z" />
    <glyph glyph-name="Acircumflex" unicode="&#xc2;" horiz-adv-x="1875" 
d="M-3 1128h125v250h125v125h250v125h381v-125h125v-125h125v-250h125v-375h125v-375h125v-250h119v125h131v-131h-125v-125h-256v125h-125v125h-119v-125h-125v-125h-131v125h-494v-125h-125v-119h125v-131h-131v125h-125v256h125v125h125v125h250v125h125v375h125v369
h-125v125h-244v-125h-250v-125h-125v-244h125v-125h244v125h131v-131h-125v-125h-256v125h-125v125h-125v256zM997 1872h-119v-125h-131v256h125v125h131v-125h125v-256h-131v125zM753 378h250v-125h119v125h125v119h-494v-119zM1122 997h-119v-125h-125v-119h244v244z
M878 128h119v119h-119v-119z" />
    <glyph glyph-name="Atilde" unicode="&#xc3;" horiz-adv-x="1875" 
d="M-3 1128h125v250h125v125h250v125h381v-125h125v-125h125v-250h125v-375h125v-375h125v-250h119v125h131v-131h-125v-125h-256v125h-125v125h-119v-125h-125v-125h-131v125h-494v-125h-125v-119h125v-131h-131v125h-125v256h125v125h125v125h250v125h125v375h125v369
h-125v125h-244v-125h-250v-125h-125v-244h125v-125h244v125h131v-131h-125v-125h-256v125h-125v125h-125v256zM747 2003h131v-125h119v125h125v125h256v-256h-131v125h-119v-125h-125v-125h-256v256zM753 497v-119h250v-125h119v125h125v119h-494zM1122 997h-119v-125h-125
v-119h244v244zM878 128h119v119h-119v-119z" />
    <glyph glyph-name="Adieresis" unicode="&#xc4;" horiz-adv-x="1875" 
d="M-3 1128h125v250h125v125h250v125h381v-125h125v-125h125v-250h125v-375h125v-375h125v-250h119v125h131v-131h-125v-125h-256v125h-125v125h-119v-125h-125v-125h-131v125h-494v-125h-125v-119h125v-131h-131v125h-125v256h125v125h125v125h250v125h125v375h125v369
h-125v125h-244v-125h-250v-125h-125v-244h125v-125h244v125h131v-131h-125v-125h-256v125h-125v125h-125v256zM753 378h250v-125h119v125h125v119h-494v-119zM747 2003h256v-256h-256v256zM1122 2003h256v-256h-256v256zM1122 997h-119v-125h-125v-119h244v244zM878 128h119
v119h-119v-119z" />
    <glyph glyph-name="Aring" unicode="&#xc5;" horiz-adv-x="1875" 
d="M-3 1128h125v250h125v125h250v125h381v-125h125v-125h125v-250h125v-375h125v-375h125v-250h119v125h131v-131h-125v-125h-256v125h-125v125h-119v-125h-125v-125h-131v125h-494v-125h-125v-119h125v-131h-131v125h-125v256h125v125h125v125h250v125h125v375h125v369
h-125v125h-244v-125h-250v-125h-125v-244h125v-125h244v125h131v-131h-125v-125h-256v125h-125v125h-125v256zM747 2128h250v125h256v-125h125v-256h-250v-125h-256v125h-125v256zM753 497v-119h250v-125h119v125h125v119h-494zM1122 997h-119v-125h-125v-119h244v244z
M1122 2122h-119v-244h119v244zM878 128h119v119h-119v-119z" />
    <glyph glyph-name="AE" unicode="&#xc6;" horiz-adv-x="3000" 
d="M-3 1128h125v250h125v125h250v125h381v-125h125v-125h125v-250h119v250h125v125h125v125h131v-131h-125v-244h119v125h125v125h375v125h256v-125h125v-250h119v125h131v-131h-125v-125h-250v-119h125v-131h-125v-125h-131v125h-244v-375h-250v-125h-125v-119h619v125h125
v250h125v125h256v-256h-125v-250h-125v-125h-250v-125h-631v125h-250v125h-244v-125h-125v-125h-131v125h-494v-125h-125v-119h125v-131h-131v125h-125v256h125v125h125v125h250v125h125v375h125v369h-125v125h-244v-125h-250v-125h-125v-244h125v-125h244v125h131v-131
h-125v-125h-256v125h-125v125h-125v256zM1378 628h125v-250h119v125h125v744h-119v-125h-250v-494zM2247 1497h-119v-125h-125v-369h119v125h250v119h-125v250zM753 378h250v-125h119v125h125v119h-494v-119zM1122 997h-119v-125h-125v-119h244v244zM878 128h119v119h-119
v-119z" />
    <glyph glyph-name="Ccedilla" unicode="&#xc7;" horiz-adv-x="1750" 
d="M497 122h-250v125h-125v250h-125v631h125v250h125v125h125v125h131v-131h-125v-244h119v125h125v125h375v125h256v-125h125v-250h119v125h131v-131h-125v-125h-256v125h-125v250h-119v-125h-125v-875h-250v-125h-125v-119h619v125h125v250h125v125h256v-256h-125v-250
h-125v-125h-250v-125h-125v-250h-125v-125h-256v131h250v119h-125v125h-250v125zM253 628h125v-250h119v125h125v744h-119v-125h-250v-494z" />
    <glyph glyph-name="Egrave" unicode="&#xc8;" horiz-adv-x="1750" 
d="M878 497h-250v-125h-125v-119h619v125h125v250h125v125h256v-256h-125v-250h-125v-125h-250v-125h-631v125h-250v125h-125v250h-125v631h125v250h125v125h125v125h131v-131h-125v-244h119v125h125v125h375v125h256v-125h125v-250h119v125h131v-131h-125v-125h-250v-119
h125v-131h-125v-125h-131v125h-244v-375zM253 628h125v-250h119v125h125v744h-119v-125h-250v-494zM1122 1497h-119v-125h-125v-369h119v125h250v119h-125v250zM872 2128h131v-125h125v-256h-131v125h-125v256z" />
    <glyph glyph-name="Eacute" unicode="&#xc9;" horiz-adv-x="1750" 
d="M878 497h-250v-125h-125v-119h619v125h125v250h125v125h256v-256h-125v-250h-125v-125h-250v-125h-631v125h-250v125h-125v250h-125v631h125v250h125v125h125v125h131v-131h-125v-244h119v125h125v125h375v125h256v-125h125v-250h119v125h131v-131h-125v-125h-250v-119
h125v-131h-125v-125h-131v125h-244v-375zM253 628h125v-250h119v125h125v744h-119v-125h-250v-494zM1122 1497h-119v-125h-125v-369h119v125h250v119h-125v250zM872 2003h125v125h131v-256h-125v-125h-131v256z" />
    <glyph glyph-name="Ecircumflex" unicode="&#xca;" horiz-adv-x="1750" 
d="M1122 872h-244v-375h-250v-125h-125v-119h619v125h125v250h125v125h256v-256h-125v-250h-125v-125h-250v-125h-631v125h-250v125h-125v250h-125v631h125v250h125v125h125v125h131v-131h-125v-244h119v125h125v125h375v125h256v-125h125v-250h119v125h131v-131h-125v-125
h-250v-119h125v-131h-125v-125h-131v125zM622 1247h-119v-125h-250v-494h125v-250h119v125h125v744zM1122 1497h-119v-125h-125v-369h119v125h250v119h-125v250zM747 2003h125v125h131v-125h125v-256h-131v125h-119v-125h-131v256z" />
    <glyph glyph-name="Edieresis" unicode="&#xcb;" horiz-adv-x="1750" 
d="M1128 -3h-631v125h-250v125h-125v250h-125v631h125v250h125v125h125v125h131v-131h-125v-244h119v125h125v125h375v125h256v-125h125v-250h119v125h131v-131h-125v-125h-250v-119h125v-131h-125v-125h-131v125h-244v-375h-250v-125h-125v-119h619v125h125v250h125v125
h256v-256h-125v-250h-125v-125h-250v-125zM253 628h125v-250h119v125h125v744h-119v-125h-250v-494zM1122 1497h-119v-125h-125v-369h119v125h250v119h-125v250zM622 2003h256v-256h-256v256zM1122 2003h256v-256h-256v256z" />
    <glyph glyph-name="Igrave" unicode="&#xcc;" horiz-adv-x="1500" 
d="M-3 1378h125v125h125v125h256v-125h125v-125h125v-125h119v125h250v125h125v125h131v-131h-125v-1250h-125v-125h-125v-125h-381v125h-369v-125h-125v-119h125v-131h-131v125h-125v256h125v125h125v125h375v369h-244v-125h-131v131h125v125h125v125h125v244h-125v125
h-369v-244h125v-131h-131v125h-125v256zM628 253h125v-125h244v125h125v119h-125v750h-119v-750h-250v-119zM747 2128h131v-125h125v-256h-131v125h-125v256z" />
    <glyph glyph-name="Iacute" unicode="&#xcd;" horiz-adv-x="1500" 
d="M-3 1378h125v125h125v125h256v-125h125v-125h125v-125h119v125h250v125h125v125h131v-131h-125v-1250h-125v-125h-125v-125h-381v125h-369v-125h-125v-119h125v-131h-131v125h-125v256h125v125h125v125h375v369h-244v-125h-131v131h125v125h125v125h125v244h-125v125
h-369v-244h125v-131h-131v125h-125v256zM997 1122h-119v-750h-250v-119h125v-125h244v125h125v119h-125v750zM872 2003h125v125h131v-256h-125v-125h-131v256z" />
    <glyph glyph-name="Icircumflex" unicode="&#xce;" horiz-adv-x="1500" 
d="M-3 1378h125v125h125v125h256v-125h125v-125h125v-125h119v125h250v125h125v125h131v-131h-125v-1250h-125v-125h-125v-125h-381v125h-369v-125h-125v-119h125v-131h-131v125h-125v256h125v125h125v125h375v369h-244v-125h-131v131h125v125h125v125h125v244h-125v125
h-369v-244h125v-131h-131v125h-125v256zM628 253h125v-125h244v125h125v119h-125v750h-119v-750h-250v-119zM747 2003h125v125h131v-125h125v-256h-131v125h-119v-125h-131v256z" />
    <glyph glyph-name="Idieresis" unicode="&#xcf;" horiz-adv-x="1500" 
d="M-3 1378h125v125h125v125h256v-125h125v-125h125v-125h119v125h250v125h125v125h131v-131h-125v-1250h-125v-125h-125v-125h-381v125h-369v-125h-125v-119h125v-131h-131v125h-125v256h125v125h125v125h375v369h-244v-125h-131v131h125v125h125v125h125v244h-125v125
h-369v-244h125v-131h-131v125h-125v256zM997 1122h-119v-750h-250v-119h125v-125h244v125h125v119h-125v750zM622 2003h256v-256h-256v256zM997 2003h256v-256h-256v256z" />
    <glyph glyph-name="Ntilde" unicode="&#xd1;" horiz-adv-x="1750" 
d="M-3 1378h125v125h125v125h256v-125h125v-125h125v-125h119v125h125v125h256v-125h119v125h131v-131h-125v-1244h119v125h131v-131h-125v-125h-256v125h-244v-125h-381v125h-369v-125h-125v-119h125v-131h-131v125h-125v256h125v125h125v125h375v369h-119v-125h-131v131
h125v125h125v369h-125v125h-369v-244h125v-131h-131v125h-125v256zM628 253h125v-125h244v125h125v1119h-119v-125h-125v-875h-250v-119zM622 2003h131v-125h119v125h125v125h256v-256h-131v125h-119v-125h-125v-125h-256v256z" />
    <glyph glyph-name="Ograve" unicode="&#xd2;" horiz-adv-x="1750" 
d="M1128 -3h-631v125h-250v125h-125v250h-125v631h125v250h125v125h125v125h131v-131h-125v-244h119v125h125v125h756v-125h125v-250h125v-631h-125v-250h-125v-125h-250v-125zM878 497h-250v-125h-125v-119h619v125h125v250h125v494h-125v250h-369v-875zM253 628h125v-250
h119v125h125v744h-119v-125h-250v-494zM747 2128h131v-125h125v-256h-131v125h-125v256z" />
    <glyph glyph-name="Oacute" unicode="&#xd3;" horiz-adv-x="1750" 
d="M1128 -3h-631v125h-250v125h-125v250h-125v631h125v250h125v125h125v125h131v-131h-125v-244h119v125h125v125h756v-125h125v-250h125v-631h-125v-250h-125v-125h-250v-125zM628 372h-125v-119h619v125h125v250h125v494h-125v250h-369v-875h-250v-125zM253 628h125v-250
h119v125h125v744h-119v-125h-250v-494zM872 2003h125v125h131v-256h-125v-125h-131v256z" />
    <glyph glyph-name="Ocircumflex" unicode="&#xd4;" horiz-adv-x="1750" 
d="M1128 -3h-631v125h-250v125h-125v250h-125v631h125v250h125v125h125v125h131v-131h-125v-244h119v125h125v125h756v-125h125v-250h125v-631h-125v-250h-125v-125h-250v-125zM1247 1372h-369v-875h-250v-125h-125v-119h619v125h125v250h125v494h-125v250zM253 628h125
v-250h119v125h125v744h-119v-125h-250v-494zM997 1872h-119v-125h-131v256h125v125h131v-125h125v-256h-131v125z" />
    <glyph glyph-name="Otilde" unicode="&#xd5;" horiz-adv-x="1750" 
d="M-3 1128h125v250h125v125h125v125h131v-131h-125v-244h119v125h125v125h756v-125h125v-250h125v-631h-125v-250h-125v-125h-250v-125h-631v125h-250v125h-125v250h-125v631zM628 372h-125v-119h619v125h125v250h125v494h-125v250h-369v-875h-250v-125zM253 628h125v-250
h119v125h125v744h-119v-125h-250v-494zM622 2003h131v-125h119v125h125v125h256v-256h-131v125h-119v-125h-125v-125h-256v256z" />
    <glyph glyph-name="Odieresis" unicode="&#xd6;" horiz-adv-x="1750" 
d="M1128 -3h-631v125h-250v125h-125v250h-125v631h125v250h125v125h125v125h131v-131h-125v-244h119v125h125v125h756v-125h125v-250h125v-631h-125v-250h-125v-125h-250v-125zM628 372h-125v-119h619v125h125v250h125v494h-125v250h-369v-875h-250v-125zM253 628h125v-250
h119v125h125v744h-119v-125h-250v-494zM622 2003h256v-256h-256v256zM997 2003h256v-256h-256v256z" />
    <glyph glyph-name="Oslash" unicode="&#xd8;" horiz-adv-x="2000" 
d="M-3 1128h125v250h125v125h125v125h131v-131h-125v-244h119v125h125v125h875v125h125v125h256v-256h-125v-125h-125v-125h-125v-119h125v-631h-125v-250h-125v-125h-250v-125h-631v125h-244v-125h-250v-125h-256v256h250v125h125v244h-125v631zM878 497h-250v-125h-125
v-119h619v125h125v250h125v494h-125v250h-369v-875zM253 628h125v-250h119v125h125v744h-119v-125h-250v-494z" />
    <glyph glyph-name="Ugrave" unicode="&#xd9;" horiz-adv-x="1750" 
d="M-3 1378h125v125h125v125h256v-125h125v-125h125v-125h119v125h125v125h256v-125h119v125h131v-131h-125v-1244h119v125h131v-131h-125v-125h-256v125h-244v-125h-256v125h-119v-125h-131v131h125v619h-244v-125h-131v131h125v125h125v125h125v244h-125v125h-369v-244
h125v-131h-131v125h-125v256zM1122 1372h-119v-125h-125v-1119h119v125h125v1119zM747 2128h131v-125h125v-256h-131v125h-125v256z" />
    <glyph glyph-name="Uacute" unicode="&#xda;" horiz-adv-x="1750" 
d="M-3 1378h125v125h125v125h256v-125h125v-125h125v-125h119v125h125v125h256v-125h119v125h131v-131h-125v-1244h119v125h131v-131h-125v-125h-256v125h-244v-125h-256v125h-119v-125h-131v131h125v619h-244v-125h-131v131h125v125h125v125h125v244h-125v125h-369v-244
h125v-131h-131v125h-125v256zM1122 1372h-119v-125h-125v-1119h119v125h125v1119zM872 2003h125v125h131v-256h-125v-125h-131v256z" />
    <glyph glyph-name="Ucircumflex" unicode="&#xdb;" horiz-adv-x="1750" 
d="M-3 1378h125v125h125v125h256v-125h125v-125h125v-125h119v125h125v125h256v-125h119v125h131v-131h-125v-1244h119v125h131v-131h-125v-125h-256v125h-244v-125h-256v125h-119v-125h-131v131h125v619h-244v-125h-131v131h125v125h125v125h125v244h-125v125h-369v-244
h125v-131h-131v125h-125v256zM1122 1372h-119v-125h-125v-1119h119v125h125v1119zM747 2003h125v125h131v-125h125v-256h-131v125h-119v-125h-131v256z" />
    <glyph glyph-name="Udieresis" unicode="&#xdc;" horiz-adv-x="1750" 
d="M-3 1378h125v125h125v125h256v-125h125v-125h125v-125h119v125h125v125h256v-125h119v125h131v-131h-125v-1244h119v125h131v-131h-125v-125h-256v125h-244v-125h-256v125h-119v-125h-131v131h125v619h-244v-125h-131v131h125v125h125v125h125v244h-125v125h-369v-244
h125v-131h-131v125h-125v256zM1122 1372h-119v-125h-125v-1119h119v125h125v1119zM1122 2003h256v-256h-256v256zM622 2003h256v-256h-256v256z" />
    <glyph glyph-name="Yacute" unicode="&#xdd;" horiz-adv-x="1625" 
d="M-3 1378h125v125h125v125h256v-125h125v-125h125v-125h119v125h125v125h256v-125h119v125h131v-131h-125v-1500h-125v-125h-381v125h-369v-125h-125v-119h125v-131h-131v125h-125v256h125v125h125v125h381v-125h125v-125h244v494h-244v-125h-256v125h-119v-125h-131v131
h125v369h-244v-125h-131v131h125v125h125v125h125v244h-125v125h-369v-250h-131v256zM1122 1372h-119v-125h-125v-869h119v125h125v869zM872 1878h125v125h131v-256h-125v-125h-131v256z" />
    <glyph glyph-name="Thorn" unicode="&#xde;" 
d="M497 122h-119v-369h125v-131h-125v-125h-131v125h-125v1875h-125v131h256v-125h125v-125h250v-125h119v125h131v-131h-125v-1125h-125v-125h-131v125zM497 1247h-119v-994h119v994z" />
    <glyph glyph-name="agrave" unicode="&#xe0;" horiz-adv-x="1125" 
d="M247 122h-119v-125h-131v131h125v500h125v119h-125v381h131v-125h369v125h131v-125h125v-131h-125v-744h119v125h131v-131h-125v-125h-256v125h-119v-125h-256v125zM247 1628h131v-125h125v-256h-131v125h-125v256zM253 753h125v-125h119v244h-244v-119zM497 497h-119
v-244h119v244z" />
    <glyph glyph-name="aacute" unicode="&#xe1;" horiz-adv-x="1125" 
d="M247 122h-119v-125h-131v131h125v500h125v119h-125v381h131v-125h369v125h131v-125h125v-131h-125v-744h119v125h131v-131h-125v-125h-256v125h-119v-125h-256v125zM372 1503h125v125h131v-256h-125v-125h-131v256zM253 753h125v-125h119v244h-244v-119zM497 497h-119
v-244h119v244z" />
    <glyph glyph-name="acircumflex" unicode="&#xe2;" horiz-adv-x="1125" 
d="M247 122h-119v-125h-131v131h125v500h125v119h-125v381h131v-125h369v125h131v-125h125v-131h-125v-744h119v125h131v-131h-125v-125h-256v125h-119v-125h-256v125zM497 1372h-119v-125h-131v256h125v125h131v-125h125v-256h-131v125zM497 872h-244v-119h125v-125h119
v244zM497 497h-119v-244h119v244z" />
    <glyph glyph-name="atilde" unicode="&#xe3;" horiz-adv-x="1125" 
d="M247 122h-119v-125h-131v131h125v500h125v119h-125v381h131v-125h369v125h131v-125h125v-131h-125v-744h119v125h131v-131h-125v-125h-256v125h-119v-125h-256v125zM622 1497h-119v-125h-125v-125h-256v256h131v-125h119v125h125v125h256v-256h-131v125zM497 872h-244
v-119h125v-125h119v244zM497 497h-119v-244h119v244z" />
    <glyph glyph-name="adieresis" unicode="&#xe4;" horiz-adv-x="1125" 
d="M247 122h-119v-125h-131v131h125v500h125v119h-125v381h131v-125h369v125h131v-125h125v-131h-125v-744h119v125h131v-131h-125v-125h-256v125h-119v-125h-256v125zM122 1503h256v-256h-256v256zM497 1503h256v-256h-256v256zM253 753h125v-125h119v244h-244v-119z
M497 497h-119v-244h119v244z" />
    <glyph glyph-name="aring" unicode="&#xe5;" horiz-adv-x="1125" 
d="M247 122h-119v-125h-131v131h125v500h125v119h-125v381h131v-125h369v125h131v-125h125v-131h-125v-744h119v125h131v-131h-125v-125h-256v125h-119v-125h-256v125zM503 1247h-256v125h-125v256h250v125h256v-125h125v-256h-250v-125zM497 872h-244v-119h125v-125h119
v244zM497 1622h-119v-244h119v244zM497 497h-119v-244h119v244z" />
    <glyph glyph-name="ae" unicode="&#xe6;" horiz-adv-x="1250" 
d="M247 122h-119v-125h-131v131h125v500h125v119h-125v381h131v-125h494v125h256v-125h125v-256h-250v-125h-125v-369h125v-125h119v125h131v-131h-125v-125h-256v125h-244v-125h-256v125zM497 872h-244v-119h125v-125h119v244zM497 497h-119v-244h119v244zM872 997h-119
v-244h119v244z" />
    <glyph glyph-name="ccedilla" unicode="&#xe7;" horiz-adv-x="1003" 
d="M128 -3h-131v131h125v875h250v125h256v-125h119v125h131v-131h-125v-125h-256v125h-119v-744h125v-125h119v125h131v-506h-250v-125h-131v131h125v125h125v119h-250v125h-244v-125z" />
    <glyph glyph-name="egrave" unicode="&#xe8;" horiz-adv-x="875" 
d="M128 -3h-131v131h125v875h250v125h256v-125h125v-256h-250v-125h-125v-369h125v-125h119v125h131v-131h-125v-125h-256v125h-244v-125zM247 1628h131v-125h125v-256h-131v125h-125v256zM378 753h119v244h-119v-244zM-3 1628h131v-125h125v-256h-131v125h-125v256z" />
    <glyph glyph-name="eacute" unicode="&#xe9;" horiz-adv-x="875" 
d="M128 -3h-131v131h125v875h250v125h256v-125h125v-256h-250v-125h-125v-369h125v-125h119v125h131v-131h-125v-125h-256v125h-244v-125zM372 1503h125v125h131v-256h-125v-125h-131v256zM497 997h-119v-244h119v244z" />
    <glyph glyph-name="ecircumflex" unicode="&#xea;" horiz-adv-x="875" 
d="M372 122h-244v-125h-131v131h125v875h250v125h256v-125h125v-256h-250v-125h-125v-369h125v-125h119v125h131v-131h-125v-125h-256v125zM497 1372h-119v-125h-131v256h125v125h131v-125h125v-256h-131v125zM497 997h-119v-244h119v244z" />
    <glyph glyph-name="edieresis" unicode="&#xeb;" horiz-adv-x="875" 
d="M128 -3h-131v131h125v875h250v125h256v-125h125v-256h-250v-125h-125v-369h125v-125h119v125h131v-131h-125v-125h-256v125h-244v-125zM497 1503h256v-256h-256v256zM122 1503h256v-256h-256v256zM497 997h-119v-244h119v244z" />
    <glyph glyph-name="igrave" unicode="&#xec;" horiz-adv-x="625" 
d="M247 122h-119v-125h-131v131h125v744h-125v131h125v125h131v-125h250v-131h-125v-619h125v-131h-125v-125h-131v125zM122 1628h131v-125h125v-256h-131v125h-125v256zM-3 1628h131v-125h125v-256h-131v125h-125v256z" />
    <glyph glyph-name="iacute" unicode="&#xed;" horiz-adv-x="625" 
d="M247 122h-119v-125h-131v131h125v744h-125v131h125v125h131v-125h250v-131h-125v-619h125v-131h-125v-125h-131v125zM122 1503h125v125h131v-256h-125v-125h-131v256z" />
    <glyph glyph-name="icircumflex" unicode="&#xee;" horiz-adv-x="625" 
d="M247 122h-119v-125h-131v131h125v744h-125v131h125v125h131v-125h250v-131h-125v-619h125v-131h-125v-125h-131v125zM122 1503h125v125h131v-125h125v-256h-131v125h-119v-125h-131v256z" />
    <glyph glyph-name="idieresis" unicode="&#xef;" horiz-adv-x="750" 
d="M247 122h-119v-125h-131v131h125v744h-125v131h125v125h131v-125h250v-131h-125v-619h125v-131h-125v-125h-131v125zM-3 1503h256v-256h-256v256zM372 1503h256v-256h-256v256z" />
    <glyph glyph-name="eth" unicode="&#xf0;" horiz-adv-x="1500" 
d="M128 -3h-131v131h125v875h250v125h256v-125h125v-256h-250v-125h-125v-369h125v-125h244v125h125v1000h125v125h131v-375h250v-131h-250v-625h-125v-125h-125v-125h-506v125h-244v-125zM497 997h-119v-244h119v244z" />
    <glyph glyph-name="ntilde" unicode="&#xf1;" 
d="M-3 253h125v619h-125v131h125v125h131v-125h244v125h131v-125h125v-750h125v-131h-125v-125h-131v125h-125v750h-119v-750h-125v-125h-131v125h-125v131zM122 1503h131v-125h119v125h125v125h256v-256h-131v125h-119v-125h-125v-125h-256v256z" />
    <glyph glyph-name="ograve" unicode="&#xf2;" horiz-adv-x="750" 
d="M-3 1003h250v125h256v-125h125v-881h-250v-125h-256v125h-125v881zM372 997h-119v-869h119v869zM122 1628h131v-125h125v-256h-131v125h-125v256zM-3 1628h131v-125h125v-256h-131v125h-125v256z" />
    <glyph glyph-name="oacute" unicode="&#xf3;" horiz-adv-x="750" 
d="M-3 1003h250v125h256v-125h125v-881h-250v-125h-256v125h-125v881zM372 997h-119v-869h119v869zM247 1503h125v125h131v-256h-125v-125h-131v256z" />
    <glyph glyph-name="ocircumflex" unicode="&#xf4;" horiz-adv-x="750" 
d="M-3 1003h250v125h256v-125h125v-881h-250v-125h-256v125h-125v881zM372 997h-119v-869h119v869zM372 1372h-119v-125h-131v256h125v125h131v-125h125v-256h-131v125z" />
    <glyph glyph-name="otilde" unicode="&#xf5;" horiz-adv-x="750" 
d="M-3 1003h250v125h256v-125h125v-881h-250v-125h-256v125h-125v881zM-3 1503h131v-125h119v125h125v125h256v-256h-131v125h-119v-125h-125v-125h-256v256zM372 997h-119v-869h119v869z" />
    <glyph glyph-name="odieresis" unicode="&#xf6;" horiz-adv-x="750" 
d="M-3 1003h250v125h256v-125h125v-881h-250v-125h-256v125h-125v881zM372 997h-119v-869h119v869zM-3 1503h256v-256h-256v256zM372 1503h256v-256h-256v256z" />
    <glyph glyph-name="divide" unicode="&#xf7;" 
d="M-3 628h125v125h756v-131h-125v-125h-756v131zM247 253h125v125h131v-125h125v-131h-125v-125h-131v125h-125v131zM247 1128h125v125h131v-125h125v-131h-125v-125h-131v125h-125v131z" />
    <glyph glyph-name="oslash" unicode="&#xf8;" 
d="M-253 -122h125v125h125v1000h250v125h375v125h125v125h131v-131h-125v-125h-125v-1000h-250v-125h-375v-125h-125v-125h-131v131zM372 997h-119v-869h119v869z" />
    <glyph glyph-name="ugrave" unicode="&#xf9;" 
d="M378 -3h-131v125h-125v750h-125v131h125v125h131v-125h125v-750h119v750h125v125h131v-125h125v-131h-125v-619h125v-131h-125v-125h-131v125h-244v-125zM247 1628h131v-125h125v-256h-131v125h-125v256z" />
    <glyph glyph-name="uacute" unicode="&#xfa;" 
d="M378 -3h-131v125h-125v750h-125v131h125v125h131v-125h125v-750h119v750h125v125h131v-125h125v-131h-125v-619h125v-131h-125v-125h-131v125h-244v-125zM372 1503h125v125h131v-256h-125v-125h-131v256z" />
    <glyph glyph-name="ucircumflex" unicode="&#xfb;" 
d="M378 -3h-131v125h-125v750h-125v131h125v125h131v-125h125v-750h119v750h125v125h131v-125h125v-131h-125v-619h125v-131h-125v-125h-131v125h-244v-125zM247 1503h125v125h131v-125h125v-256h-131v125h-119v-125h-131v256z" />
    <glyph glyph-name="udieresis" unicode="&#xfc;" 
d="M378 -3h-131v125h-125v750h-125v131h125v125h131v-125h125v-750h119v750h125v125h131v-125h125v-131h-125v-619h125v-131h-125v-125h-131v125h-244v-125zM122 1503h256v-256h-256v256zM497 1503h256v-256h-256v256z" />
    <glyph glyph-name="yacute" unicode="&#xfd;" 
d="M128 -122h625v-256h-125v-125h-381v125h-125v250h-125v256h125v744h-125v131h125v125h131v-125h125v-750h119v750h125v125h131v-125h125v-131h-125v-625h-125v-125h-125v-125h-375v-119zM372 1503h125v125h131v-256h-125v-125h-131v256zM253 -372h369v119h-369v-119z" />
    <glyph glyph-name="thorn" unicode="&#xfe;" 
d="M497 122h-119v-369h125v-131h-125v-125h-131v125h-125v1875h-125v131h256v-125h125v-375h250v-125h119v125h131v-131h-125v-875h-125v-125h-131v125zM497 997h-119v-744h119v744z" />
    <glyph glyph-name="ydieresis" unicode="&#xff;" 
d="M128 -122h625v-256h-125v-125h-381v125h-125v250h-125v256h125v744h-125v131h125v125h131v-125h125v-750h119v750h125v125h131v-125h125v-131h-125v-625h-125v-125h-125v-125h-375v-119zM122 1503h256v-256h-256v256zM497 1503h256v-256h-256v256zM253 -372h369v119h-369
v-119z" />
    <glyph glyph-name="oe" unicode="&#x153;" horiz-adv-x="1125" 
d="M-3 1003h250v125h256v-125h119v125h256v-125h125v-256h-250v-125h-125v-369h125v-125h119v125h131v-131h-125v-125h-256v125h-244v-125h-256v125h-125v881zM372 997h-119v-869h119v869zM747 997h-119v-244h119v244z" />
    <glyph glyph-name="Scaron" unicode="&#x160;" horiz-adv-x="1500" 
d="M-3 128h125v125h125v125h631v-125h119v125h125v119h-250v125h-250v125h-250v125h-250v381h125v250h250v125h381v-125h125v-125h119v125h131v-131h-125v-125h-256v125h-125v125h-119v-125h-125v-119h250v-125h250v-125h125v-125h250v-256h-125v-250h-125v-125h-125v-125
h-125v-125h-131v125h-494v-125h-125v-119h125v-131h-131v125h-125v256zM622 2128h131v-125h119v125h131v-256h-125v-125h-131v125h-125v256zM628 997v-119h244v119h-244zM378 1003h244v119h-244v-119zM878 753h244v119h-244v-119zM253 1128h119v119h-119v-119zM1128 628h119
v119h-119v-119z" />
    <glyph glyph-name="scaron" unicode="&#x161;" 
d="M247 122h-119v-125h-131v131h125v125h125v119h-125v631h250v125h256v-125h119v125h131v-131h-125v-125h-125v-119h125v-506h-125v-125h-250v-125h-131v125zM247 1628h131v-125h119v125h131v-256h-125v-125h-131v125h-125v256zM497 872h-119v-244h244v119h-125v125z
M253 378h125v-125h119v244h-244v-119z" />
    <glyph glyph-name="Ydieresis" unicode="&#x178;" horiz-adv-x="1626" 
d="M-3 1378h125v125h125v125h256v-125h125v-125h125v-125h119v125h125v125h256v-125h119v125h131v-131h-125v-1500h-125v-125h-381v125h-369v-125h-125v-119h125v-131h-131v125h-125v256h125v125h125v125h381v-125h125v-125h119v494h-119v-125h-256v125h-119v-125h-131v131
h125v369h-244v-125h-131v131h125v125h125v125h125v244h-125v125h-369v-250h-131v256zM1122 1372h-119v-125h-125v-869h119v125h125v869zM622 2003h256v-256h-256v256zM1122 2003h256v-256h-256v256z" />
    <glyph glyph-name="Zcaron" unicode="&#x17d;" horiz-adv-x="1502" 
d="M1122 628h131v-125h125v-256h-125v-125h-125v-125h-381v125h-125v125h-244v-250h-256v256h125v250h125v125h125v119h-250v256h500v125h125v119h-250v125h-369v-125h-125v-125h-131v256h125v125h125v125h381v-125h125v-125h244v250h256v-256h-125v-125h-125v-125h-125
v-119h250v-256h-500v-125h-125v-125h-125v-119h375v-125h369v125h125v119h-125v131zM622 2128h131v-125h119v125h131v-256h-125v-125h-131v125h-125v256z" />
    <glyph glyph-name="zcaron" unicode="&#x17e;" horiz-adv-x="875" 
d="M-3 253h125v125h125v119h-125v131h250v119h-125v125h-119v-125h-131v256h125v125h131v-125h125v-125h119v125h125v125h131v-256h-125v-125h-125v-119h250v-131h-250v-125h-125v-119h244v125h131v-381h-256v125h-244v-125h-256v256zM247 1628h131v-125h119v125h131v-256
h-125v-125h-131v125h-125v256zM128 128h119v119h-119v-119z" />
    <glyph glyph-name="florin" unicode="&#x192;" horiz-adv-x="876" 
d="M378 -378h-250v-125h-256v125h-125v131h131v-125h119v125h125v1119h-125v131h125v500h250v125h256v-125h125v-256h-256v250h-119v-494h250v-131h-250v-1250z" />
    <glyph glyph-name="circumflex" unicode="&#x2c6;" horiz-adv-x="500" 
d="M-3 1503h125v125h131v-125h125v-256h-131v125h-119v-125h-131v256z" />
    <glyph glyph-name="tilde" unicode="&#x2dc;" horiz-adv-x="750" 
d="M497 1497h-119v-125h-125v-125h-256v256h131v-125h119v125h125v125h256v-256h-131v125z" />
    <glyph glyph-name="endash" unicode="&#x2013;" 
d="M-3 628h125v125h756v-131h-125v-125h-756v131z" />
    <glyph glyph-name="emdash" unicode="&#x2014;" horiz-adv-x="1500" 
d="M-3 628h125v125h1256v-131h-125v-125h-1256v131z" />
    <glyph glyph-name="quoteleft" unicode="&#x2018;" horiz-adv-x="500" 
d="M-3 1628h125v125h125v125h131v-131h-125v-119h125v-131h-125v-125h-131v125h-125v131z" />
    <glyph glyph-name="quoteright" unicode="&#x2019;" horiz-adv-x="500" 
d="M-3 1753h125v125h131v-125h125v-131h-125v-125h-125v-125h-131v131h125v119h-125v131z" />
    <glyph glyph-name="quotesinglbase" unicode="&#x201a;" horiz-adv-x="500" 
d="M-3 253h125v125h131v-125h125v-131h-125v-125h-125v-125h-131v131h125v119h-125v131z" />
    <glyph glyph-name="quotedblleft" unicode="&#x201c;" 
d="M-3 1628h125v125h125v125h131v-131h-125v-119h125v-131h-125v-125h-131v125h-125v131zM497 1628h125v125h125v125h131v-131h-125v-119h125v-131h-125v-125h-131v125h-125v131z" />
    <glyph glyph-name="quotedblright" unicode="&#x201d;" 
d="M-3 1753h125v125h131v-125h125v-131h-125v-125h-125v-125h-131v131h125v119h-125v131zM497 1753h125v125h131v-125h125v-131h-125v-125h-125v-125h-131v131h125v119h-125v131z" />
    <glyph glyph-name="quotedblbase" unicode="&#x201e;" 
d="M-3 253h125v125h131v-125h125v-131h-125v-125h-125v-125h-131v131h125v119h-125v131zM497 253h125v125h131v-125h125v-131h-125v-125h-125v-125h-131v131h125v119h-125v131z" />
    <glyph glyph-name="dagger" unicode="&#x2020;" horiz-adv-x="1375" 
d="M372 1628h125v125h131v-125h125v-500h500v-131h-125v-125h-375v-1244h125v-131h-125v-125h-131v125h-125v1375h-500v131h125v125h375v369h-125v131z" />
    <glyph glyph-name="daggerdbl" unicode="&#x2021;" horiz-adv-x="1375" 
d="M372 1628h125v125h131v-125h125v-500h500v-131h-125v-125h-375v-494h500v-131h-125v-125h-375v-494h125v-131h-125v-125h-131v125h-125v625h-500v131h125v125h375v494h-500v131h125v125h375v369h-125v131z" />
    <glyph glyph-name="ellipsis" unicode="&#x2026;" horiz-adv-x="1500" 
d="M-3 253h125v125h131v-125h125v-131h-125v-125h-131v125h-125v131zM497 253h125v125h131v-125h125v-131h-125v-125h-131v125h-125v131zM997 253h125v125h131v-125h125v-131h-125v-125h-131v125h-125v131z" />
    <glyph glyph-name="guilsinglleft" unicode="&#x2039;" horiz-adv-x="625" 
d="M-3 878h125v125h250v125h131v-131h-125v-125h-125v-119h125v-125h125v-131h-131v125h-250v125h-125v131z" />
    <glyph glyph-name="guilsinglright" unicode="&#x203a;" horiz-adv-x="625" 
d="M-3 1128h131v-125h250v-125h125v-131h-125v-125h-250v-125h-131v131h125v125h125v119h-125v125h-125v131z" />
    <glyph glyph-name="Euro" unicode="&#x20ac;" horiz-adv-x="1750" 
d="M503 253h750v-131h-125v-125h-631v125h-250v125h-125v250h-125v631h125v250h125v125h125v125h131v-131h-125v-244h119v125h125v125h375v125h256v-125h125v-250h119v125h131v-131h-125v-125h-256v125h-125v250h-119v-125h-125v-369h500v-131h-125v-125h-375v-119h500v-131
h-125v-125h-750v-119zM253 878h119v125h250v244h-119v-125h-250v-244zM253 628h125v-125h119v125h125v119h-369v-119z" />
    <glyph glyph-name="glyph73" horiz-adv-x="1375" 
d="M-3 253h131v-125h119v250h125v250h125v250h125v250h125v250h125v125h256v-125h125v-131h-131v125h-119v-250h-125v-250h-125v-250h-125v-250h-125v-250h-125v-125h-256v125h-125v131zM747 503h125v125h381v-506h-125v-125h-381v506zM-3 1378h125v125h381v-506h-125v-125
h-381v506zM878 128h244v369h-244v-369zM128 1003h244v369h-244v-369z" />
  </font>
</defs>
</svg>
